<?xml version="1.0" encoding="UTF-8" standalone="no"?>
<!-- Generator: Adobe Illustrator 19.0.0, SVG Export Plug-In . SVG Version: 6.00 Build 0)  -->

<svg
   xmlns:dc="http://purl.org/dc/elements/1.1/"
   xmlns:cc="http://creativecommons.org/ns#"
   xmlns:rdf="http://www.w3.org/1999/02/22-rdf-syntax-ns#"
   xmlns:svg="http://www.w3.org/2000/svg"
   xmlns="http://www.w3.org/2000/svg"
   xmlns:sodipodi="http://sodipodi.sourceforge.net/DTD/sodipodi-0.dtd"
   xmlns:inkscape="http://www.inkscape.org/namespaces/inkscape"
   version="1.1"
   id="Layer_1"
   x="0px"
   y="0px"
   viewBox="0 0 512 390.035"
   xml:space="preserve"
   sodipodi:docname="gmail.svg"
   width="512"
   height="390.035"
   inkscape:version="0.92.1 r15371"><metadata
     id="metadata4534"><rdf:RDF><cc:Work
         rdf:about=""><dc:format>image/svg+xml</dc:format><dc:type
           rdf:resource="http://purl.org/dc/dcmitype/StillImage" /><dc:title></dc:title></cc:Work></rdf:RDF></metadata><defs
     id="defs4532" /><sodipodi:namedview
     pagecolor="#ffffff"
     bordercolor="#666666"
     borderopacity="1"
     objecttolerance="10"
     gridtolerance="10"
     guidetolerance="10"
     inkscape:pageopacity="0"
     inkscape:pageshadow="2"
     inkscape:window-width="1920"
     inkscape:window-height="1001"
     id="namedview4530"
     showgrid="false"
     fit-margin-bottom="-2.7755576e-017"
     fit-margin-top="0"
     fit-margin-left="0"
     fit-margin-right="0"
     inkscape:zoom="1.578125"
     inkscape:cx="256"
     inkscape:cy="221.93621"
     inkscape:window-x="-9"
     inkscape:window-y="-9"
     inkscape:window-maximized="1"
     inkscape:current-layer="Layer_1" /><g
     id="g4489"
     transform="translate(0,-60.983)"><polygon
       style="fill:#f2f2f2"
       points="452.288,451.017 59.712,451.017 33.379,129.16 256,253.802 484.973,122.808 "
       id="polygon4485" /><polygon
       style="fill:#f2f2f2"
       points="38.114,60.983 256,60.983 473.886,60.983 256,265.659 "
       id="polygon4487" /></g><path
     style="fill:#f14336"
     d="M 59.712,94.51 V 390.034 H 24.139 C 10.812,390.034 0,379.223 0,365.895 V 50.984 l 39,1.063 z"
     id="path4491"
     inkscape:connector-curvature="0" /><path
     style="fill:#d32e2a"
     d="m 512,50.984 v 314.912 c 0,13.327 -10.812,24.139 -24.152,24.139 h -35.56 V 94.51 L 471.98,47.985 Z"
     id="path4493"
     inkscape:connector-curvature="0" /><path
     style="fill:#f14336"
     d="M 512,24.139 V 50.984 L 452.288,94.51 256,237.578 59.712,94.51 0,50.984 V 24.139 C 0,10.812 10.812,0 24.139,0 H 38.114 L 256,158.809 473.886,0 h 13.962 C 501.188,0 512,10.811 512,24.139 Z"
     id="path4495"
     inkscape:connector-curvature="0" /><polygon
     style="fill:#d32e2a"
     points="59.712,155.493 0,146.235 0,111.967 "
     id="polygon4497"
     transform="translate(0,-60.983)" /><g
     id="g4499"
     transform="translate(0,-60.983)" /><g
     id="g4501"
     transform="translate(0,-60.983)" /><g
     id="g4503"
     transform="translate(0,-60.983)" /><g
     id="g4505"
     transform="translate(0,-60.983)" /><g
     id="g4507"
     transform="translate(0,-60.983)" /><g
     id="g4509"
     transform="translate(0,-60.983)" /><g
     id="g4511"
     transform="translate(0,-60.983)" /><g
     id="g4513"
     transform="translate(0,-60.983)" /><g
     id="g4515"
     transform="translate(0,-60.983)" /><g
     id="g4517"
     transform="translate(0,-60.983)" /><g
     id="g4519"
     transform="translate(0,-60.983)" /><g
     id="g4521"
     transform="translate(0,-60.983)" /><g
     id="g4523"
     transform="translate(0,-60.983)" /><g
     id="g4525"
     transform="translate(0,-60.983)" /><g
     id="g4527"
     transform="translate(0,-60.983)" /></svg>