<?xml version="1.0" encoding="UTF-8" standalone="no"?>
<svg
   xmlns:dc="http://purl.org/dc/elements/1.1/"
   xmlns:cc="http://creativecommons.org/ns#"
   xmlns:rdf="http://www.w3.org/1999/02/22-rdf-syntax-ns#"
   xmlns:svg="http://www.w3.org/2000/svg"
   xmlns="http://www.w3.org/2000/svg"
   xmlns:sodipodi="http://sodipodi.sourceforge.net/DTD/sodipodi-0.dtd"
   xmlns:inkscape="http://www.inkscape.org/namespaces/inkscape"
   height="2048"
   style="clip-rule:evenodd;fill-rule:evenodd;image-rendering:optimizeQuality;shape-rendering:geometricPrecision;text-rendering:geometricPrecision"
   viewBox="0 0 2048 2048"
   width="2048"
   xml:space="preserve"
   version="1.1"
   id="svg4551"
   sodipodi:docname="outlook.svg"
   inkscape:version="0.92.1 r15371"><metadata
     id="metadata4555"><rdf:RDF><cc:Work
         rdf:about=""><dc:format>image/svg+xml</dc:format><dc:type
           rdf:resource="http://purl.org/dc/dcmitype/StillImage" /><dc:title></dc:title></cc:Work></rdf:RDF></metadata><sodipodi:namedview
     pagecolor="#ffffff"
     bordercolor="#666666"
     borderopacity="1"
     objecttolerance="10"
     gridtolerance="10"
     guidetolerance="10"
     inkscape:pageopacity="0"
     inkscape:pageshadow="2"
     inkscape:window-width="1920"
     inkscape:window-height="1001"
     id="namedview4553"
     showgrid="false"
     fit-margin-top="0"
     fit-margin-left="0"
     fit-margin-right="0"
     fit-margin-bottom="0"
     inkscape:zoom="0.11523438"
     inkscape:cx="1024"
     inkscape:cy="1024"
     inkscape:window-x="-9"
     inkscape:window-y="-9"
     inkscape:window-maximized="1"
     inkscape:current-layer="svg4551" /><defs
     id="defs4538"><style
       type="text/css"
       id="style4536"><![CDATA[
    .fil2 {fill:none}
    .fil1 {fill:#0072C6}
    .fil0 {fill:#0072C6;fill-rule:nonzero}
   ]]></style></defs><g
     id="Layer_x0020_1"
     transform="matrix(1.3115744,0,0,1.3238683,-319.05214,-318.67466)"><path
       class="fil0"
       d="M 1193.18,927.326 V 636.212 620.2742 h 16.0004 l 499.77,0.007 v -0.0626 c 14.3539,0 34.0394,9.89056 48.0237,26.3421 10.9358,12.8658 18.9603,29.9398 18.9603,49.6359 v 8.48859 l -7.063,4.76103 -437.842,295.19298 -4.1244,2.0008 c -2.9232,0.9224 -6.7488,1.3583 -10.2661,1.3583 -3.4039,0 -7.2461,-0.4512 -10.1587,-1.2969 l -4.063,-1.8118 -101.737,-64.06418 -7.5,-4.72205 v -8.77796 z"
       id="path4540"
       inkscape:connector-curvature="0"
       style="fill:#0072c6;fill-rule:nonzero" /><path
       class="fil0"
       d="m 1218.18,981.959 92.856,63.7819 0.437,0.3118 c 3.9874,2.9303 9.8941,-0.1039 11.0658,-0.7571 l 428.652,-285.54798 24.8126,-16.5284 v 29.8406 535.05398 c 0,31.5673 -9.802,55.0335 -25.4079,71.3197 -18.0343,18.8185 -43.2638,27.352 -69.8115,27.352 h -471.661 -16.0016 v -16.0004 -395.63898 -16.0004 h 16.0004 0.057 l 9,2.81339 z"
       id="path4542"
       inkscape:connector-curvature="0"
       style="fill:#0072c6;fill-rule:nonzero" /><path
       class="fil0"
       d="m 728.975,842.207 c -16.0276,0 -30.2729,3.67796 -42.7099,11.0185 -12.8575,7.58623 -24.2079,19.2106 -34.0252,34.8508 l -0.0354,-0.0213 c -10.2638,16.3973 -18.0532,35.7898 -23.3551,58.1646 -5.4,22.8 -8.10591,48.5741 -8.10591,77.3221 0,29.1992 2.70591,55.1811 8.10591,77.941 5.25709,22.1504 13.0335,41.1922 23.3138,57.1229 9.81969,15.2421 20.9551,26.5264 33.3957,33.867 11.9658,7.0619 25.5177,10.5815 40.6465,10.5815 v 0.078 c 15.7701,0 29.8063,-3.4984 42.0933,-10.4811 12.4949,-7.0996 23.511,-17.9858 33.0355,-32.6469 9.99804,-15.4004 17.5784,-34.0819 22.7244,-56.0315 5.2878,-22.5603 7.94174,-48.5304 7.94174,-77.8926 0,-30.77605 -2.57953,-57.96975 -7.74568,-81.57055 -5.00552,-22.865 -12.4039,-42.2823 -22.1988,-58.2402 -9.26103,-15.0803 -19.9914,-26.2571 -32.1945,-33.528 -11.8701,-7.07008 -25.5,-10.611 -40.8863,-10.6122 v 0.078 z"
       id="path4544"
       inkscape:connector-curvature="0"
       style="fill:#0072c6;fill-rule:nonzero" /><path
       class="fil1"
       d="M 1170.4,1768.14 V 279.87 260.5058 l -19.0004,3.67677 -866.403,167.705 -13.0004,2.51693 v 13.1705 1138.92 12.9508 l 12.75,2.674 866.403,181.65 19.2508,4.0359 v -19.6606 z M 730.928,747.8 c 31.1681,-0.004 59.4473,6.4063 84.8079,19.2402 25.2874,12.7973 47.5122,31.8969 66.6497,57.3083 l 0.0307,-0.0224 c 18.8658,25.011 32.9882,53.8926 42.3614,86.6505 9.24804,32.3138 13.8721,68.3575 13.8721,108.139 h -0.0626 c 0.0248,40.8331 -4.7504,77.8489 -14.3126,111.034 -9.70631,33.6851 -24.3201,63.3709 -43.8201,89.0457 -19.8366,26.0941 -42.7748,45.7288 -68.8134,58.8756 -26.178,13.2165 -55.2248,19.8366 -87.143,19.8366 v -0.063 c -31.2874,0 -59.6989,-6.3874 -85.2438,-19.1445 -25.5154,-12.7417 -48.0733,-31.774 -67.6855,-57.0863 -19.2756,-24.9414 -33.7288,-53.5796 -43.3418,-85.9241 -9.49961,-31.9689 -14.2583,-67.4315 -14.2583,-106.403 0,-41.0587 4.79292,-78.3331 14.3847,-111.815 9.69686,-33.8516 24.3378,-63.8233 43.924,-89.9068 19.8803,-26.4862 43.076,-46.3985 69.5812,-59.7308 26.6362,-13.3973 56.328,-20.0977 89.0694,-20.0977 v 0.0626 z"
       id="path4546"
       inkscape:connector-curvature="0"
       style="fill:#0072c6" /></g><rect
     class="fil2"
     height="2048"
     width="2048"
     id="rect4549"
     x="0"
     y="0"
     style="fill:none" /></svg>