<?xml version="1.0" ?><!DOCTYPE svg  PUBLIC '-//W3C//DTD SVG 1.1//EN'  'http://www.w3.org/Graphics/SVG/1.1/DTD/svg11.dtd'><svg height="2048px" style="shape-rendering:geometricPrecision; text-rendering:geometricPrecision; image-rendering:optimizeQuality; fill-rule:evenodd; clip-rule:evenodd" viewBox="0 0 2048 2048" width="2048px" xml:space="preserve" xmlns="http://www.w3.org/2000/svg" xmlns:xlink="http://www.w3.org/1999/xlink"><defs><style type="text/css">
   <![CDATA[
    .fil2 {fill:none}
    .fil1 {fill:#0072C6}
    .fil0 {fill:#0072C6;fill-rule:nonzero}
   ]]>
  </style></defs><g id="Layer_x0020_1"><path class="fil0" d="M1193.18 927.326l0 -291.114 0 -15.9378 16.0004 0 499.77 0.00708662 0 -0.0625985c14.3539,0 34.0394,9.89056 48.0237,26.3421 10.9358,12.8658 18.9603,29.9398 18.9603,49.6359l0 8.48859 -7.063 4.76103 -437.842 295.193 -4.12441 2.00079c-2.92323,0.922442 -6.74882,1.35827 -10.2661,1.35827 -3.40394,0 -7.24607,-0.451181 -10.1587,-1.29685l-4.063 -1.81181 -101.737 -64.0642 -7.50001 -4.72205 0 -8.77796z"/><path class="fil0" d="M1218.18 981.959l92.856 63.7819 0.437008 0.311811c3.9874,2.93032 9.8941,-0.103937 11.0658,-0.757087l428.652 -285.548 24.8126 -16.5284 0 29.8406 0 535.054c0,31.5673 -9.80198,55.0335 -25.4079,71.3197 -18.0343,18.8185 -43.2638,27.352 -69.8115,27.352l-471.661 0 -16.0016 0 0.0011811 -16.0004 0 -395.639 0 -16.0004 16.0004 0 0.056693 0 9.00001 2.81339z"/><path class="fil0" d="M728.975 842.207c-16.0276,0 -30.2729,3.67796 -42.7099,11.0185 -12.8575,7.58623 -24.2079,19.2106 -34.0252,34.8508l-0.0354331 -0.0212599c-10.2638,16.3973 -18.0532,35.7898 -23.3551,58.1646 -5.4,22.8 -8.10591,48.5741 -8.10591,77.3221 0,29.1992 2.70591,55.1811 8.10591,77.941 5.25709,22.1504 13.0335,41.1922 23.3138,57.1229 9.81969,15.2421 20.9551,26.5264 33.3957,33.867 11.9658,7.06182 25.5177,10.5815 40.6465,10.5815l0 0.0779528c15.7701,-0.00354331 29.8063,-3.49843 42.0933,-10.4811 12.4949,-7.09961 23.511,-17.9858 33.0355,-32.6469 9.99804,-15.4004 17.5784,-34.0819 22.7244,-56.0315 5.2878,-22.5603 7.94174,-48.5304 7.94174,-77.8926 0,-30.776 -2.57953,-57.9697 -7.74568,-81.5705 -5.00552,-22.865 -12.4039,-42.2823 -22.1988,-58.2402 -9.26103,-15.0803 -19.9914,-26.2571 -32.1945,-33.528 -11.8701,-7.07008 -25.5,-10.611 -40.8863,-10.6122l0 0.0779528z"/><path class="fil1" d="M1170.4 1768.14l0 -1488.27 0 -19.3642 -19.0004 3.67677 -866.403 167.705 -13.0004 2.51693 0 13.1705 0 1138.92 0 12.9508 12.75 2.67402 866.403 181.65 19.2508 4.03583 0 -19.6606zm-439.472 -1020.34c31.1681,-0.00354331 59.4473,6.4063 84.8079,19.2402 25.2874,12.7973 47.5122,31.8969 66.6497,57.3083l0.0307087 -0.022441c18.8658,25.011 32.9882,53.8926 42.3614,86.6505 9.24804,32.3138 13.8721,68.3575 13.8721,108.139l-0.0625985 0c0.0248032,40.8331 -4.7504,77.8489 -14.3126,111.034 -9.70631,33.6851 -24.3201,63.3709 -43.8201,89.0457 -19.8366,26.0941 -42.7748,45.7288 -68.8134,58.8756 -26.178,13.2165 -55.2248,19.8366 -87.143,19.8366l0 -0.0625985c-31.2874,-0.00236221 -59.6989,-6.38741 -85.2438,-19.1445 -25.5154,-12.7417 -48.0733,-31.774 -67.6855,-57.0863 -19.2756,-24.9414 -33.7288,-53.5796 -43.3418,-85.9241 -9.49961,-31.9689 -14.2583,-67.4315 -14.2583,-106.403 0,-41.0587 4.79292,-78.3331 14.3847,-111.815 9.69686,-33.8516 24.3378,-63.8233 43.924,-89.9068 19.8803,-26.4862 43.076,-46.3985 69.5812,-59.7308 26.6362,-13.3973 56.328,-20.0977 89.0694,-20.0977l0 0.0625985z"/></g><rect class="fil2" height="2048" width="2048"/></svg>