<?xml version="1.0" ?><!DOCTYPE svg  PUBLIC '-//W3C//DTD SVG 1.1//EN'  'http://www.w3.org/Graphics/SVG/1.1/DTD/svg11.dtd'><svg enable-background="new 0 0 512 512" id="Layer_1" version="1.1" viewBox="0 0 512 512" xml:space="preserve" xmlns="http://www.w3.org/2000/svg" xmlns:xlink="http://www.w3.org/1999/xlink"><g><path d="M512,256c0,141.4-114.6,256-256,256C114.6,512,0,397.4,0,256C0,114.6,114.6,0,256,0   C397.4,0,512,114.6,512,256z" fill="#410093"/><g><path d="M241.5,274.2l76.7-134c0.1-0.1,0.1-0.3-0.1-0.4c-0.1-0.1-0.3-0.2-0.4-0.1c-4.1,2-9.5,3.1-15.2,3.1    c-5.6,0-11-1.1-15.1-3.1c-0.2-0.1-0.4,0-0.5,0.1l-59.1,102.3l-59.1-102.3c-0.1-0.2-0.3-0.2-0.5-0.2c-4.1,2-9.5,3.1-15.1,3.1    c-5.6,0-11-1.1-15.1-3.1c-0.1-0.1-0.3-0.1-0.4,0.1c-0.1,0.1-0.1,0.3-0.1,0.4L214,273.8L212.6,374c0,0.1,0.1,0.3,0.1,0.3    c0.1,0,0.1,0.1,0.2,0.1s0.1,0,0.2,0c4.1-1.9,9.3-2.9,14.7-2.9c5.3,0,10.5,1,14.5,2.8c0.1,0,0.1,0.1,0.2,0c0.2,0,0.4-0.2,0.4-0.3    c0,0,0-0.1,0-0.1L241.5,274.2z M362.4,138.9c-8.9-1.3-17.3,4.9-18.6,13.9c-0.1,0.5-0.4,3.6-0.8,8.7c-1.6,41-5.3,96.2-13.8,157.8    c-0.1,0.8-0.1,1.4-0.2,1.7c0,0.1,0,0.2,0.1,0.3c0,0,0.1,0.1,0.2,0.1c0,0,0.1,0,0.1,0c2.3-0.4,4.7-0.4,7.2-0.1    c2,0.3,3.8,0.8,5.6,1.5c0.1,0.1,0.2,0.1,0.3,0c0.1-0.1,0.1-0.1,0.2-0.2c0.1-0.3,0.2-0.8,0.3-1.4c9.3-61.6,21.6-115.7,31.8-155.5    c0.9-4.6,1.5-7.5,1.6-8.2C377.6,148.6,371.3,140.2,362.4,138.9z M332.9,341.5c-9-1.3-17.3,4.9-18.6,13.9    c-1.3,9,4.9,17.3,13.9,18.6c8.9,1.3,17.3-4.9,18.6-13.9C348.1,351.2,341.8,342.8,332.9,341.5z" fill="#FFFFFF"/></g></g></svg>